{"title":"Red Dwarf Season 12. revittony","magnet":"magnet:?xt=urn:btih:4e7969c9fa3435fa3e14e17401d66ebd4c8889b6&dn=Red+Dwarf+Season+12.+revittony&tr=udp%3A%2F%2Ftracker.leechers-paradise.org%3A6969&tr=udp%3A%2F%2Fzer0day.ch%3A1337&tr=udp%3A%2F%2Fopen.demonii.com%3A1337&tr=udp%3A%2F%2Ftracker.coppersurfer.tk%3A6969&tr=udp%3A%2F%2Fexodus.desync.com%3A6969","uploader":"revittony1","categoryP":"video","categoryS":"tv_shows","size":"2417127107","seeders":"8","leechers":"6","description":"all 6 episodes of season 12\n\r\nFormat : Matroska \r\nFormat version : Version 4 / Version 2 \r\nFile size : 406 MiB \r\nDuration : 29 min 24 s \r\nOverall bit rate : 1 929 kb/s \r\nEncoded date : UTC 2017-10-06 06:58:17 \r\nWriting application : mkvmerge v13.0.0 (&apos;The Juggler&apos;) 64bit \r\nWriting library : libebml v1.3.4 + libmatroska v1.4.5 \r\n\r\nVideo \r\nID : 1 \r\nFormat : AVC \r\nFormat/Info : Advanced Video Codec \r\nFormat profile : [email protected] \r\nFormat settings : CABAC / 3 Ref Frames \r\nFormat settings, CABAC : Yes \r\nFormat settings, RefFrames : 3 frames \r\nCodec ID : V_MPEG4/ISO/AVC \r\nDuration : 29 min 24 s \r\nBit rate : 1 799 kb/s \r\nWidth : 720 pixels \r\nHeight : 404 pixels \r\nDisplay aspect ratio : 16:9 \r\nFrame rate mode : Constant \r\nFrame rate : 25.000 FPS \r\nColor space : YUV \r\nChroma subsampling : 4:2:0 \r\nBit depth : 8 bits \r\nScan type : Progressive \r\nBits/(Pixel*Frame) : 0.247 \r\nStream size : 378 MiB (93%) \r\nWriting library : Zencoder Video Encoding System \r\nDefault : Yes \r\nForced : No \r\n\r\nAudio \r\nID : 2 \r\nFormat : AAC \r\nFormat/Info : Advanced Audio Codec \r\nFormat profile : LC \r\nCodec ID : A_AAC-2 \r\nDuration : 29 min 24 s \r\nBit rate : 128 kb/s \r\nChannel(s) : 2 channels \r\nChannel positions : Front: L R \r\nSampling rate : 48.0 kHz \r\nFrame rate : 46.875 FPS (1024 SPF) \r\nCompression mode : Lossy \r\nDelay relative to video : -55 ms \r\nStream size : 26.9 MiB (7%) \r\nDefault : Yes \r\nForced : No","last_updated":"2017-11-11T12:02:18.680Z","parsed":{"xt":"urn:btih:4e7969c9fa3435fa3e14e17401d66ebd4c8889b6","dn":"Red Dwarf Season 12. revittony","tr":["udp://exodus.desync.com:6969","udp://open.demonii.com:1337","udp://tracker.coppersurfer.tk:6969","udp://tracker.leechers-paradise.org:6969","udp://zer0day.ch:1337"],"infoHash":"4e7969c9fa3435fa3e14e17401d66ebd4c8889b6","infoHashBuffer":{"type":"Buffer","data":[78,121,105,201,250,52,53,250,62,20,225,116,1,214,110,189,76,136,137,182]},"name":"Red Dwarf Season 12. revittony","announce":["udp://exodus.desync.com:6969","udp://open.demonii.com:1337","udp://tracker.coppersurfer.tk:6969","udp://tracker.leechers-paradise.org:6969","udp://zer0day.ch:1337"],"urlList":[]}}